<?xml version="1.0" encoding="UTF-8" standalone="no"?>
<!-- Created with Inkscape (http://www.inkscape.org/) -->

<svg
   width="25.4mm"
   height="25.4mm"
   viewBox="0 0 25.4 25.4"
   version="1.1"
   id="svg5"
   sodipodi:docname="or.svg"
   inkscape:version="1.1.1 (3bf5ae0d25, 2021-09-20)"
   xmlns:inkscape="http://www.inkscape.org/namespaces/inkscape"
   xmlns:sodipodi="http://sodipodi.sourceforge.net/DTD/sodipodi-0.dtd"
   xmlns="http://www.w3.org/2000/svg"
   xmlns:svg="http://www.w3.org/2000/svg">
  <sodipodi:namedview
     id="namedview7"
     pagecolor="#ffffff"
     bordercolor="#999999"
     borderopacity="1"
     inkscape:pageshadow="0"
     inkscape:pageopacity="0"
     inkscape:pagecheckerboard="0"
     inkscape:document-units="mm"
     showgrid="false"
     inkscape:zoom="2.8934905"
     inkscape:cx="-24.537838"
     inkscape:cy="49.939684"
     inkscape:window-width="1920"
     inkscape:window-height="1001"
     inkscape:window-x="-9"
     inkscape:window-y="-9"
     inkscape:window-maximized="1"
     inkscape:current-layer="layer1" />
  <defs
     id="defs2" />
  <g
     inkscape:label="Layer 1"
     inkscape:groupmode="layer"
     id="layer1"
     transform="translate(-119.78978,-72.350739)">
    <path
       id="path10206"
       stroke-linecap="square"
       d="m 164.09189,129.69888 v 0.0167 c 0.58182,1.00938 0.91784,2.17514 0.91784,3.42291 0,1.24804 -0.33602,2.41379 -0.91784,3.42265 v 0.0159 h 3.56394 c 2.54264,0 4.7625,-1.3851 5.95312,-3.43853 -1.19062,-2.05317 -3.41048,-3.43958 -5.95312,-3.43958 z m 10.58333,3.43984 c 0,0.2921 -0.23812,0.52917 -0.52916,0.52917 -0.29105,0 -0.52917,-0.23707 -0.52917,-0.52917 0,-0.2921 0.23812,-0.52916 0.52917,-0.52916 0.29104,0 0.52916,0.23706 0.52916,0.52916 z m 0,-2.6e-4 h 2.38125 m -14.68437,-1.71979 h 2.38125 m -2.38125,3.43958 h 2.38125"
       style="fill:#ffffff;stroke:#ececec;stroke-width:0.565;stroke-miterlimit:4;stroke-dasharray:none" />
    <path
       id="rect9115"
       stroke-linecap="square"
       d="m 126.23749,81.628749 v 0.0164 c 0.58182,1.009386 0.91784,2.17514 0.91784,3.423179 0,1.247775 -0.33602,2.41353 -0.91784,3.422386 v 0.01587 h 3.56367 c 2.54265,0 4.7625,-1.385094 5.95313,-3.438261 -1.19063,-2.053431 -3.41048,-3.439583 -5.95313,-3.439583 z m 9.525,3.439583 h 2.38125 M 124.5177,83.348541 h 2.38125 m -2.38125,3.439583 h 2.38125"
       style="fill:none;stroke:#ececec;stroke-width:0.665;stroke-miterlimit:4;stroke-dasharray:none" />
  </g>
</svg>
