<?xml version="1.0" encoding="UTF-8" standalone="no"?>
<!-- Created with Inkscape (http://www.inkscape.org/) -->

<svg
   width="104.10266mm"
   height="52.49799mm"
   viewBox="0 0 104.10266 52.49799"
   version="1.1"
   id="svg5"
   inkscape:version="1.1.1 (3bf5ae0d25, 2021-09-20)"
   sodipodi:docname="propagate-logo.svg"
   xmlns:inkscape="http://www.inkscape.org/namespaces/inkscape"
   xmlns:sodipodi="http://sodipodi.sourceforge.net/DTD/sodipodi-0.dtd"
   xmlns="http://www.w3.org/2000/svg"
   xmlns:svg="http://www.w3.org/2000/svg">
  <sodipodi:namedview
     id="namedview7"
     pagecolor="#ffffff"
     bordercolor="#999999"
     borderopacity="1"
     inkscape:pageshadow="0"
     inkscape:pageopacity="0"
     inkscape:pagecheckerboard="0"
     inkscape:document-units="mm"
     showgrid="false"
     inkscape:zoom="1.0230034"
     inkscape:cx="166.17736"
     inkscape:cy="148.09335"
     inkscape:window-width="1920"
     inkscape:window-height="1001"
     inkscape:window-x="-9"
     inkscape:window-y="-9"
     inkscape:window-maximized="1"
     inkscape:current-layer="layer1" />
  <defs
     id="defs2" />
  <g
     inkscape:label="Layer 1"
     inkscape:groupmode="layer"
     id="layer1"
     transform="translate(-42.575258,-116.19988)">
    <path
       style="color:#000000;fill:#5d536c;stroke-width:1;stroke-linecap:square;-inkscape-stroke:none"
       d="m 58.902417,116.20095 v 4.4562 6.43683 h -11.883299 -4.44386 v 8.90004 h 4.44386 11.883299 v 12.89835 h -11.883299 -4.44386 v 8.90012 h 4.44386 11.883299 v 6.44918 4.4562 h 8.900093 v -4.4562 -43.58452 -4.4562 z m 10.038903,0 v 52.49692 h 36.30597 c 12.86318,0 23.13847,-9.54504 25.33861,-21.79841 h 11.64818 4.44384 v -8.9001 h -4.44384 -11.64818 c -2.19742,-12.25673 -12.47308,-21.79841 -25.33861,-21.79841 z m 8.9001,8.90005 h 27.40587 c 9.62592,0 17.35456,7.71628 17.35456,17.3422 0,9.62592 -7.72864,17.35456 -17.35456,17.35456 H 77.84142 Z"
       id="path6087-9"
       sodipodi:nodetypes="cccccccccccccccccccccccsccccccsccssscc" />
    <path
       id="path8327-8-3"
       style="color:#000000;fill:#ffff00;stroke-width:1;-inkscape-stroke:none"
       d="m 97.58874,116.19988 c -17.6907,10.82341 -26.30481,31.87446 -22.60494,52.49704 h 4.91597 c -4.0548,-20.38336 5.19783,-41.22973 23.78071,-50.32562 1.57653,-0.77169 3.18348,-1.40014 4.80133,-1.96182 -1.05765,-0.13499 -2.13698,-0.2096 -3.23583,-0.2096 z m 23.39095,5.51859 c -2.23248,0.61684 -4.44267,1.42703 -6.61247,2.48911 -16.69663,8.17264 -25.34938,26.34923 -22.93247,44.48934 h 4.88978 c -2.48172,-16.41621 5.231,-32.82853 20.16824,-40.13997 2.77555,-1.35858 5.63078,-2.28328 8.51207,-2.82644 -1.19555,-1.48113 -2.54421,-2.82824 -4.02515,-4.01204 z m 7.70965,10.07758 c -0.58302,0.24205 -1.16281,0.49741 -1.73908,0.77947 -13.65186,6.68226 -20.96971,21.22936 -19.68353,36.03951 1.64372,-0.12979 3.23881,-0.41343 4.77187,-0.84172 -0.97303,-12.78135 5.40106,-25.14303 17.04376,-30.84186 0.38466,-0.18829 0.7771,-0.34384 1.16596,-0.5142 -0.3849,-1.59885 -0.90906,-3.14531 -1.55898,-4.6212 z" />
  </g>
</svg>
